<svg xmlns="http://www.w3.org/2000/svg" viewBox="0 0 64 64" width="48" height="48"><path d="M40.227 12C51.146 12 52 12.854 52 23.773v16.453C52 51.145 51.146 52 40.227 52H23.773C12.855 52 12 51.145 12 40.227V23.773C12 12.854 12.855 12 23.773 12h16.454zm2.505 17.737v-4.196s-2.218.011-4.091-1.705c-1.574-1.442-1.705-4.143-1.705-4.143H32.74v16.6c0 2.281-1.985 3.462-3.409 3.462-1.073 0-3.514-.841-3.514-3.488 0-2.778 2.806-3.488 3.54-3.488s1.023.157 1.023.157v-4.429s-.682-.065-1.18-.082c-4.235-.143-7.736 3.657-7.736 7.841 0 3.535 2.765 7.815 7.815 7.815 5.379 0 7.841-4.486 7.841-7.789v-8.234s1.547.865 2.806 1.259c1.259.394 2.806.42 2.806.42z"/></svg>